<?xml version="1.0" encoding="UTF-8" standalone="no"?>
<!DOCTYPE svg PUBLIC "-//W3C//DTD SVG 1.1//EN"
 "http://www.w3.org/Graphics/SVG/1.1/DTD/svg11.dtd">
<!-- Generated by graphviz version 2.43.0 (0)
 -->
<!-- Title: state transitions Pages: 1 -->
<svg width="949pt" height="142pt"
 viewBox="0.00 0.00 949.00 142.00" xmlns="http://www.w3.org/2000/svg" xmlns:xlink="http://www.w3.org/1999/xlink">
<g id="graph0" class="graph" transform="scale(1 1) rotate(0) translate(4 138)">
<title>state transitions</title>
<polygon fill="white" stroke="transparent" points="-4,4 -4,-138 945,-138 945,4 -4,4"/>
<!-- OFF -->
<g id="node1" class="node state regular">
<title>OFF</title>
<polygon fill="#ffffff" fill-opacity="0.003922" stroke="transparent" stroke-width="2" points="56,-36 0,-36 0,0 56,0 56,-36"/>
<text text-anchor="start" x="16" y="-14.4" font-family="Helvetica,sans-Serif" font-size="12.00">OFF</text>
<path fill="none" stroke="black" stroke-width="2" d="M12,-1.5C12,-1.5 44,-1.5 44,-1.5 49.5,-1.5 55,-7 55,-12.5 55,-12.5 55,-23.5 55,-23.5 55,-29 49.5,-34.5 44,-34.5 44,-34.5 12,-34.5 12,-34.5 6.5,-34.5 1,-29 1,-23.5 1,-23.5 1,-12.5 1,-12.5 1,-7 6.5,-1.5 12,-1.5"/>
</g>
<!-- GROUNDED -->
<g id="node2" class="node state regular">
<title>GROUNDED</title>
<polygon fill="#ffffff" fill-opacity="0.003922" stroke="transparent" stroke-width="2" points="306,-87 213,-87 213,-51 306,-51 306,-87"/>
<text text-anchor="start" x="224.5" y="-65.4" font-family="Helvetica,sans-Serif" font-size="12.00">GROUNDED</text>
<path fill="none" stroke="black" stroke-width="2" d="M225,-52.5C225,-52.5 294,-52.5 294,-52.5 299.5,-52.5 305,-58 305,-63.5 305,-63.5 305,-74.5 305,-74.5 305,-80 299.5,-85.5 294,-85.5 294,-85.5 225,-85.5 225,-85.5 219.5,-85.5 214,-80 214,-74.5 214,-74.5 214,-63.5 214,-63.5 214,-58 219.5,-52.5 225,-52.5"/>
</g>
<!-- OFF&#45;&gt;GROUNDED -->
<g id="edge1" class="edge transition">
<title>OFF&#45;&gt;GROUNDED</title>
<path fill="none" stroke="black" d="M56.23,-24.05C92.18,-32.04 156.35,-46.3 202.79,-56.62"/>
<polygon fill="black" stroke="black" points="202.18,-60.07 212.71,-58.82 203.7,-53.24 202.18,-60.07"/>
<text text-anchor="start" x="74" y="-56" font-family="Helvetica,sans-Serif" font-size="10.00">NOT armed and RC ON &#160;&#160;</text>
</g>
<!-- CARROT -->
<g id="node6" class="node state regular">
<title>CARROT</title>
<polygon fill="#ffffff" fill-opacity="0.003922" stroke="transparent" stroke-width="2" points="941,-53 868,-53 868,-17 941,-17 941,-53"/>
<text text-anchor="start" x="879.5" y="-31.4" font-family="Helvetica,sans-Serif" font-size="12.00">CARROT</text>
<path fill="none" stroke="black" stroke-width="2" d="M880,-18.5C880,-18.5 929,-18.5 929,-18.5 934.5,-18.5 940,-24 940,-29.5 940,-29.5 940,-40.5 940,-40.5 940,-46 934.5,-51.5 929,-51.5 929,-51.5 880,-51.5 880,-51.5 874.5,-51.5 869,-46 869,-40.5 869,-40.5 869,-29.5 869,-29.5 869,-24 874.5,-18.5 880,-18.5"/>
</g>
<!-- OFF&#45;&gt;CARROT -->
<g id="edge2" class="edge transition">
<title>OFF&#45;&gt;CARROT</title>
<path fill="none" stroke="black" d="M56.16,-14.88C99.07,-10.22 185.21,-2 258.5,-2 258.5,-2 258.5,-2 689.5,-2 761.39,-2 779.29,-9.05 850,-22 852.64,-22.48 855.35,-23.02 858.07,-23.59"/>
<polygon fill="black" stroke="black" points="857.42,-27.03 867.94,-25.76 858.92,-20.19 857.42,-27.03"/>
<text text-anchor="start" x="427" y="-5" font-family="Helvetica,sans-Serif" font-size="10.00">armed and RC ON &#160;&#160;</text>
</g>
<!-- TAKEOFF -->
<g id="node3" class="node state regular">
<title>TAKEOFF</title>
<polygon fill="#ffffff" fill-opacity="0.003922" stroke="transparent" stroke-width="2" points="513,-87 438,-87 438,-51 513,-51 513,-87"/>
<text text-anchor="start" x="449.5" y="-65.4" font-family="Helvetica,sans-Serif" font-size="12.00">TAKEOFF</text>
<path fill="none" stroke="black" stroke-width="2" d="M450,-52.5C450,-52.5 501,-52.5 501,-52.5 506.5,-52.5 512,-58 512,-63.5 512,-63.5 512,-74.5 512,-74.5 512,-80 506.5,-85.5 501,-85.5 501,-85.5 450,-85.5 450,-85.5 444.5,-85.5 439,-80 439,-74.5 439,-74.5 439,-63.5 439,-63.5 439,-58 444.5,-52.5 450,-52.5"/>
</g>
<!-- GROUNDED&#45;&gt;TAKEOFF -->
<g id="edge3" class="edge transition">
<title>GROUNDED&#45;&gt;TAKEOFF</title>
<path fill="none" stroke="black" d="M306.15,-69C341.9,-69 391.45,-69 427.54,-69"/>
<polygon fill="black" stroke="black" points="427.8,-72.5 437.8,-69 427.8,-65.5 427.8,-72.5"/>
<text text-anchor="start" x="324" y="-72" font-family="Helvetica,sans-Serif" font-size="10.00">Takeoff request &#160;&#160;</text>
</g>
<!-- HOLD -->
<g id="node5" class="node state regular">
<title>HOLD</title>
<polygon fill="#ffffff" fill-opacity="0.003922" stroke="transparent" stroke-width="2" points="717,-87 660,-87 660,-51 717,-51 717,-87"/>
<text text-anchor="start" x="671.5" y="-65.4" font-family="Helvetica,sans-Serif" font-size="12.00">HOLD</text>
<path fill="none" stroke="black" stroke-width="2" d="M672,-52.5C672,-52.5 705,-52.5 705,-52.5 710.5,-52.5 716,-58 716,-63.5 716,-63.5 716,-74.5 716,-74.5 716,-80 710.5,-85.5 705,-85.5 705,-85.5 672,-85.5 672,-85.5 666.5,-85.5 661,-80 661,-74.5 661,-74.5 661,-63.5 661,-63.5 661,-58 666.5,-52.5 672,-52.5"/>
</g>
<!-- TAKEOFF&#45;&gt;HOLD -->
<g id="edge4" class="edge transition">
<title>TAKEOFF&#45;&gt;HOLD</title>
<path fill="none" stroke="black" d="M513.25,-69C551.46,-69 610.97,-69 649.6,-69"/>
<polygon fill="black" stroke="black" points="649.9,-72.5 659.9,-69 649.9,-65.5 649.9,-72.5"/>
<text text-anchor="start" x="542" y="-72" font-family="Helvetica,sans-Serif" font-size="10.00">Takeoff completed &#160;&#160;</text>
</g>
<!-- LAND -->
<g id="node4" class="node state regular">
<title>LAND</title>
<polygon fill="#ffffff" fill-opacity="0.003922" stroke="transparent" stroke-width="2" points="932.5,-134 876.5,-134 876.5,-98 932.5,-98 932.5,-134"/>
<text text-anchor="start" x="887.5" y="-112.4" font-family="Helvetica,sans-Serif" font-size="12.00">LAND</text>
<path fill="none" stroke="black" stroke-width="2" d="M888.5,-99.5C888.5,-99.5 920.5,-99.5 920.5,-99.5 926,-99.5 931.5,-105 931.5,-110.5 931.5,-110.5 931.5,-121.5 931.5,-121.5 931.5,-127 926,-132.5 920.5,-132.5 920.5,-132.5 888.5,-132.5 888.5,-132.5 883,-132.5 877.5,-127 877.5,-121.5 877.5,-121.5 877.5,-110.5 877.5,-110.5 877.5,-105 883,-99.5 888.5,-99.5"/>
</g>
<!-- LAND&#45;&gt;GROUNDED -->
<g id="edge8" class="edge transition">
<title>LAND&#45;&gt;GROUNDED</title>
<path fill="none" stroke="black" d="M876.35,-116.3C843.04,-116.57 784.85,-116.68 735,-115 597.93,-110.37 563.61,-108.16 427,-96 381.09,-91.91 369.39,-91.98 324,-84 321.37,-83.54 318.69,-83.03 315.98,-82.5"/>
<polygon fill="black" stroke="black" points="316.66,-79.06 306.15,-80.45 315.23,-85.92 316.66,-79.06"/>
<text text-anchor="start" x="548" y="-114" font-family="Helvetica,sans-Serif" font-size="10.00">Land completed &#160;&#160;</text>
</g>
<!-- HOLD&#45;&gt;LAND -->
<g id="edge7" class="edge transition">
<title>HOLD&#45;&gt;LAND</title>
<path fill="none" stroke="black" d="M717.06,-74.96C749.04,-81.88 803.36,-93.68 850,-104 855.34,-105.18 860.99,-106.44 866.52,-107.68"/>
<polygon fill="black" stroke="black" points="865.77,-111.09 876.29,-109.86 867.3,-104.26 865.77,-111.09"/>
<text text-anchor="start" x="756" y="-107" font-family="Helvetica,sans-Serif" font-size="10.00">Land request &#160;&#160;</text>
</g>
<!-- HOLD&#45;&gt;CARROT -->
<g id="edge5" class="edge transition">
<title>HOLD&#45;&gt;CARROT</title>
<path fill="none" stroke="black" d="M708.82,-50.91C716.4,-44.97 725.54,-39.1 735,-36 774.93,-22.91 823.1,-24.2 857.69,-27.85"/>
<polygon fill="black" stroke="black" points="857.63,-31.36 867.97,-29.04 858.44,-24.41 857.63,-31.36"/>
<text text-anchor="start" x="748" y="-39" font-family="Helvetica,sans-Serif" font-size="10.00">RC inputs active &#160;&#160;</text>
</g>
<!-- CARROT&#45;&gt;HOLD -->
<g id="edge6" class="edge transition">
<title>CARROT&#45;&gt;HOLD</title>
<path fill="none" stroke="black" d="M867.9,-43.42C861.94,-44.71 855.81,-45.95 850,-47 808.17,-54.54 759.78,-60.85 727.17,-64.75"/>
<polygon fill="black" stroke="black" points="726.68,-61.28 717.16,-65.93 727.5,-68.23 726.68,-61.28"/>
<text text-anchor="start" x="735" y="-66" font-family="Helvetica,sans-Serif" font-size="10.00">Position_hold request &#160;&#160;</text>
</g>
</g>
</svg>
